<svg version="1.1" viewBox="0.0 0.0 800.0 600.0" fill="none" stroke="none" stroke-linecap="square" stroke-miterlimit="10" xmlns:xlink="http://www.w3.org/1999/xlink" xmlns="http://www.w3.org/2000/svg"><clipPath id="p.0"><path d="m0 0l800.0 0l0 600.0l-800.0 0l0 -600.0z" clip-rule="nonzero"/></clipPath><g clip-path="url(#p.0)"><path fill="#000000" fill-opacity="0.0" d="m0 0l800.0 0l0 600.0l-800.0 0z" fill-rule="evenodd"/><path fill="#ffffff" d="m184.93176 119.178474c-4.708664 0 -8.561691 3.8530197 -8.561691 8.561684l0 325.3412c0 4.708679 3.8530273 8.561676 8.561691 8.561676l100.94226 0c35.87137 0 70.97638 9.931763 101.54068 28.595795c-3.2257385 4.8372803 -8.572174 7.6089478 -14.209991 7.6089478c-1.2493286 0 -2.5118103 -0.13650513 -3.7690125 -0.41732788c-53.682404 -12.412079 -108.561676 -18.664032 -163.69817 -18.664032l-46.490814 0l0 -308.21786c0 -4.708664 -3.853012 -8.561676 -8.561676 -8.561676c-4.708664 0 -8.561691 3.853012 -8.561691 8.561676l0 316.77954c0 4.7086487 3.8530273 8.561676 8.561691 8.561676l55.05249 0c53.766403 0 107.44618 6.0787354 159.84514 18.236206c2.5275574 0.58270264 5.0787354 0.8687744 7.6115417 0.8687744c9.740173 0 19.188995 -4.199463 25.779541 -11.740143c6.5905457 7.54068 16.036743 11.740143 25.776917 11.740143c2.5328064 0 5.0839844 -0.28607178 7.6115417 -0.8687744c52.398956 -12.157471 106.078705 -18.236206 159.84775 -18.236206l55.049866 0c4.708679 0 8.561707 -3.8530273 8.561707 -8.561676l0 -316.77954c0 -4.708664 -3.8530273 -8.561676 -8.561707 -8.561676c-4.708618 0 -8.5616455 3.853012 -8.5616455 8.561676l0 308.21786l-46.48822 0c-55.1391 0 -110.01837 6.251953 -163.70078 18.664032c-1.2572021 0.28082275 -2.5196838 0.41732788 -3.769043 0.41732788c-5.637787 0 -10.984222 -2.7716675 -14.209961 -7.6089478c30.566925 -18.664032 65.66928 -28.595795 101.54068 -28.595795l100.94226 0c4.708679 0 8.561707 -3.8529968 8.561707 -8.561676l0 -59.931763c0 -4.7086487 -3.8530273 -8.561676 -8.561707 -8.561676c-4.708679 0 -8.561707 3.8530273 -8.561707 8.561676l0 51.370087l-92.380554 0c-36.643036 0 -72.68765 9.419952 -104.53543 27.48294l0 -232.96063c0 -4.708664 -3.8530273 -8.561676 -8.561676 -8.561676c-4.711273 0 -8.561676 3.853012 -8.561676 8.561676l0 232.96063c-31.850403 -18.062988 -67.89502 -27.48294 -104.538055 -27.48294l-92.380585 0l0 -308.21783l131.84778 0c35.960632 0 65.07086 29.19423 65.07086 65.15486c0 4.708664 3.8504028 8.475067 8.561676 8.475067c4.7086487 0 8.561676 -3.7664032 8.561676 -8.475067c0 -35.960632 29.107605 -65.15486 65.06824 -65.15486l131.84775 0l0 222.60106c0 4.711273 3.8530273 8.561676 8.561707 8.561676c4.708679 0 8.561707 -3.8504028 8.561707 -8.561676l0 -231.16273c0 -4.708664 -3.8530273 -8.561684 -8.561707 -8.561684l-140.40945 0c-31.251953 0 -59.76114 17.721794 -73.62991 45.632545c-13.871399 -27.910751 -42.380585 -45.632545 -73.63254 -45.632545z" fill-rule="evenodd"/><path fill="#ffffff" d="m227.74016 179.11023c-4.708664 0 -8.561676 3.8530273 -8.561676 8.561691c0 4.708664 3.853012 8.561676 8.561676 8.561676l97.60106 0c12.842499 0 25.43045 3.7664032 36.131226 10.958008c1.4593201 0.9501343 3.1049805 1.4094391 4.729645 1.4094391c2.763794 0 5.4671936 -1.3254547 7.0866394 -3.8057709c2.653534 -3.9396362 1.6246643 -9.246719 -2.3123474 -11.900253l-0.08660889 0c-13.4409485 -8.992126 -29.364838 -13.78479 -45.548553 -13.78479z" fill-rule="evenodd"/><path fill="#ffffff" d="m472.60367 179.11023c-16.2677 0 -32.107605 4.7926636 -45.635162 13.78479c-3.9370117 2.653534 -4.9658813 7.960617 -2.309723 11.900253c1.6168213 2.4803162 4.320221 3.8057709 7.0839844 3.8057709c1.6273193 0 3.2729797 -0.4593048 4.7296753 -1.4094391c10.7034 -7.1916046 23.288727 -10.958008 36.131226 -10.958008l97.60104 0c4.708679 0 8.561707 -3.853012 8.561707 -8.561676c0 -4.708664 -3.8530273 -8.561691 -8.561707 -8.561691z" fill-rule="evenodd"/><path fill="#ffffff" d="m227.74016 221.91864c-4.708664 0 -8.561676 3.853012 -8.561676 8.561676c0 4.708664 3.853012 8.561676 8.561676 8.561676l97.60106 0c12.842499 0 25.43045 3.7664032 36.131226 10.958008c1.4593201 0.9501343 3.1049805 1.4094543 4.729645 1.4094543c2.763794 0 5.4671936 -1.32547 7.0866394 -3.8057861c2.653534 -3.939621 1.6246643 -9.246719 -2.3123474 -11.902878l-0.08660889 0c-13.4409485 -8.989502 -29.364838 -13.78215 -45.548553 -13.78215z" fill-rule="evenodd"/><path fill="#ffffff" d="m472.60367 221.91864c-16.2677 0 -32.107605 4.7926483 -45.635162 13.78215c-3.9370117 2.6561584 -4.9658813 7.963257 -2.309723 11.902878c1.6168213 2.4803162 4.320221 3.8057861 7.0839844 3.8057861c1.6273193 0 3.2729797 -0.45932007 4.7296753 -1.4094543c10.7034 -7.1916046 23.288727 -10.958008 36.131226 -10.958008l97.60104 0c4.708679 0 8.561707 -3.853012 8.561707 -8.561676c0 -4.708664 -3.8530273 -8.561676 -8.561707 -8.561676z" fill-rule="evenodd"/><path fill="#ffffff" d="m227.74016 264.72702c-4.708664 0 -8.561676 3.8530273 -8.561676 8.561707c0 4.7086487 3.853012 8.561676 8.561676 8.561676l97.60106 0c12.842499 0 25.43045 3.766388 36.131226 10.958008c1.4593201 0.9501343 3.1049805 1.4094238 4.729645 1.4094238c2.763794 0 5.4671936 -1.3254395 7.0866394 -3.8057556c2.653534 -3.9396362 1.6246643 -9.246735 -2.3123474 -11.902893l-0.08660889 0c-13.4409485 -8.989502 -29.364838 -13.782166 -45.548553 -13.782166z" fill-rule="evenodd"/><path fill="#ffffff" d="m472.60367 264.72702c-16.2677 0 -32.107605 4.7926636 -45.635162 13.782166c-3.9370117 2.6561584 -4.9658813 7.963257 -2.309723 11.902893c1.6168213 2.4803162 4.320221 3.8057556 7.0839844 3.8057556c1.6273193 0 3.2729797 -0.45928955 4.7296753 -1.4094238c10.7034 -7.19162 23.288727 -10.958008 36.131226 -10.958008l97.60104 0c4.708679 0 8.561707 -3.8530273 8.561707 -8.561676c0 -4.708679 -3.8530273 -8.561707 -8.561707 -8.561707z" fill-rule="evenodd"/><path fill="#ffffff" d="m227.74016 307.53543c-4.708664 0 -8.561676 3.8504028 -8.561676 8.561676c0 4.708679 3.853012 8.561676 8.561676 8.561676l97.60106 0c12.842499 0 25.43045 3.7664185 36.131226 10.958008c1.4593201 0.9501343 3.1049805 1.4094543 4.729645 1.4094543c2.763794 0 5.4671936 -1.32547 7.0866394 -3.8057861c2.653534 -3.9396057 1.6246643 -9.246704 -2.3123474 -11.902863l-0.08660889 0c-13.4409485 -8.989502 -29.364838 -13.782166 -45.548553 -13.782166z" fill-rule="evenodd"/><path fill="#ffffff" d="m472.60367 307.53543c-16.2677 0 -32.107605 4.7926636 -45.635162 13.782166c-3.9370117 2.6561584 -4.9658813 7.963257 -2.309723 11.902863c1.6168213 2.4803162 4.320221 3.8057861 7.0839844 3.8057861c1.6273193 0 3.2729797 -0.45932007 4.7296753 -1.4094543c10.7034 -7.1915894 23.288727 -10.958008 36.131226 -10.958008l97.60104 0c4.708679 0 8.561707 -3.8529968 8.561707 -8.561676c0 -4.711273 -3.8530273 -8.561676 -8.561707 -8.561676z" fill-rule="evenodd"/><path fill="#ffffff" d="m227.74016 350.34122c-4.708664 0 -8.561676 3.8529968 -8.561676 8.561676c0 4.711273 3.853012 8.561676 8.561676 8.561676l97.60106 0c12.842499 0 25.43045 3.7690125 36.131226 10.960632c1.4593201 0.9501343 3.1049805 1.4094543 4.729645 1.4094543c2.763794 0 5.4671936 -1.3280945 7.0866394 -3.8084106c2.653534 -3.9370117 1.6246643 -9.24408 -2.3123474 -11.900269l-0.08660889 0c-13.4409485 -8.989502 -29.364838 -13.7847595 -45.548553 -13.7847595z" fill-rule="evenodd"/><path fill="#ffffff" d="m472.60367 350.34122c-16.2677 0 -32.107605 4.7952576 -45.635162 13.7847595c-3.9370117 2.656189 -4.9658813 7.963257 -2.309723 11.900269c1.6168213 2.4803162 4.320221 3.8084106 7.0839844 3.8084106c1.6273193 0 3.2729797 -0.45932007 4.7296753 -1.4094543c10.7034 -7.19162 23.288727 -10.960632 36.131226 -10.960632l97.60104 0c4.708679 0 8.561707 -3.8504028 8.561707 -8.561676c0 -4.708679 -3.8530273 -8.561676 -8.561707 -8.561676z" fill-rule="evenodd"/><path fill="#ffffff" d="m227.74016 393.1496c-4.708664 0 -8.561676 3.8530273 -8.561676 8.561676c0 4.708679 3.853012 8.561707 8.561676 8.561707l97.60106 0c12.842499 0 25.43045 3.7690125 36.131226 10.960602c1.4593201 0.9501343 3.1049805 1.4094543 4.729645 1.4094543c2.763794 0 5.4671936 -1.328064 7.0866394 -3.8083801c2.653534 -3.9370117 1.6246643 -9.246735 -2.3123474 -11.900269c-13.527557 -8.989502 -29.367462 -13.78479 -45.635162 -13.78479z" fill-rule="evenodd"/><path fill="#ffffff" d="m472.60367 393.1496c-16.2677 0 -32.107605 4.795288 -45.635162 13.78479c-3.9370117 2.653534 -4.9658813 7.963257 -2.309723 11.900269c1.6168213 2.4803162 4.320221 3.8083801 7.0839844 3.8083801c1.6273193 0 3.2729797 -0.45932007 4.7296753 -1.4094543c10.7034 -7.1915894 23.288727 -10.960602 36.131226 -10.960602l97.60104 0c4.708679 0 8.561707 -3.8530273 8.561707 -8.561707c0 -4.7086487 -3.8530273 -8.561676 -8.561707 -8.561676z" fill-rule="evenodd"/></g></svg>