<svg version="1.1" viewBox="0.0 0.0 800.0 600.0" fill="none" stroke="none" stroke-linecap="square" stroke-miterlimit="10" xmlns:xlink="http://www.w3.org/1999/xlink" xmlns="http://www.w3.org/2000/svg"><clipPath id="p.0"><path d="m0 0l800.0 0l0 600.0l-800.0 0l0 -600.0z" clip-rule="nonzero"/></clipPath><g clip-path="url(#p.0)"><path fill="#000000" fill-opacity="0.0" d="m0 0l800.0 0l0 600.0l-800.0 0z" fill-rule="evenodd"/><path fill="#ffffff" d="m66.744736 -0.0039503938c-7.3384514 0 -13.34338 5.8404055 -13.34338 12.977794l0 493.1522c0 7.13739 6.0049286 12.977783 13.34338 12.977783l157.3185 0c55.90558 0 110.6167 15.054565 158.25116 43.34552c-5.0272827 7.3323364 -13.359741 11.53363 -22.14624 11.53363c-1.947113 0 -3.9146729 -0.20690918 -5.8740234 -0.63256836c-83.66406 -18.81427 -169.19339 -28.290955 -255.1236 -28.290955l-72.45593 0l0 -467.19662c0 -7.13739 -6.0049286 -12.977798 -13.343377 -12.977798c-7.338449 0 -13.343378 5.8404083 -13.343378 12.977798l0 480.1744c0 7.13739 6.0049295 12.977783 13.343378 12.977783l85.79931 0c83.79494 0 167.4549 9.214172 249.11865 27.642456c3.939209 0.88323975 7.915222 1.3168945 11.86261 1.3168945c15.180023 0 29.906006 -6.3656006 40.1774 -17.795715c10.271362 11.430115 24.993256 17.795715 40.17328 17.795715c3.9473877 0 7.923401 -0.4336548 11.86261 -1.3168945c81.66379 -18.428284 165.3237 -27.642456 249.12277 -27.642456l85.79523 0c7.33844 0 13.343323 -5.840393 13.343323 -12.977783l0 -480.1744c0 -7.13739 -6.004883 -12.977798 -13.343323 -12.977798c-7.338501 0 -13.343384 5.8404083 -13.343384 12.977798l0 467.19662l-72.45184 0c-85.934326 0 -171.46368 9.476685 -255.12769 28.290955c-1.9593811 0.42565918 -3.926941 0.63256836 -5.874054 0.63256836c-8.786499 0 -17.118958 -4.201294 -22.14624 -11.53363c47.63855 -28.290955 102.34561 -43.34552 158.25113 -43.34552l157.31854 0c7.33844 0 13.343384 -5.840393 13.343384 -12.977783l0 -90.84454c0 -7.13739 -6.004944 -12.977814 -13.343384 -12.977814c-7.33844 0 -13.343384 5.8404236 -13.343384 12.977814l0 77.86676l-143.97516 0c-57.108154 0 -113.28369 14.278748 -162.91846 41.65863l0 -353.1217c0 -7.13739 -6.0049133 -12.977798 -13.343353 -12.977798c-7.34256 0 -13.343384 5.8404083 -13.343384 12.977798l0 353.1217c-49.638855 -27.379883 -105.81439 -41.65863 -162.92258 -41.65863l-143.97513 0l0 -467.19662l205.48474 0c56.044647 0 101.412964 44.25261 101.412964 98.761734c0 7.1373825 6.000824 12.846504 13.343384 12.846504c7.33844 0 13.343353 -5.7091217 13.343353 -12.846504c0 -54.509125 45.364227 -98.761734 101.408875 -98.761734l205.48474 0l0 337.41867c0 7.141388 6.004944 12.977814 13.343384 12.977814c7.33844 0 13.343384 -5.836426 13.343384 -12.977814l0 -350.39645c0 -7.1373887 -6.004944 -12.977794 -13.343384 -12.977794l-218.82812 0c-48.706207 0 -93.13776 26.86268 -114.75223 69.169815c-21.61856 -42.307133 -66.05014 -69.169815 -114.75635 -69.169815z" fill-rule="evenodd"/><path fill="#ffffff" d="m133.46162 90.84061c-7.3384476 0 -13.343384 5.8404083 -13.343384 12.977798c0 7.13739 6.004936 12.977791 13.343384 12.977791l152.11122 0c20.015076 0 39.63336 5.709114 56.310547 16.610146c2.274353 1.4402161 4.8391113 2.136444 7.371155 2.136444c4.307373 0 8.52063 -2.0091248 11.044495 -5.768799c4.135559 -5.9716873 2.5320435 -14.016174 -3.6037598 -18.038414l-0.13500977 0c-20.947693 -13.630264 -45.765076 -20.894966 -70.98743 -20.894966z" fill-rule="evenodd"/><path fill="#ffffff" d="m515.0814 90.84061c-25.353241 0 -50.039734 7.264702 -71.122406 20.894966c-6.1358337 4.0222397 -7.7393494 12.066727 -3.599701 18.038414c2.5197754 3.759674 6.7330627 5.768799 11.040405 5.768799c2.5361328 0 5.1009216 -0.696228 7.371155 -2.136444c16.681274 -10.9010315 36.29547 -16.610146 56.310547 -16.610146l152.1112 0c7.338501 0 13.343384 -5.8404007 13.343384 -12.977791c0 -7.13739 -6.004883 -12.977798 -13.343384 -12.977798z" fill-rule="evenodd"/><path fill="#ffffff" d="m133.46162 155.72958c-7.3384476 0 -13.343384 5.8404083 -13.343384 12.977783c0 7.13739 6.004936 12.977798 13.343384 12.977798l152.11122 0c20.015076 0 39.63336 5.7091217 56.310547 16.610153c2.274353 1.4402008 4.8391113 2.136444 7.371155 2.136444c4.307373 0 8.52063 -2.00914 11.044495 -5.768799c4.135559 -5.971695 2.5320435 -14.016174 -3.6037598 -18.042404l-0.13500977 0c-20.947693 -13.626282 -45.765076 -20.890976 -70.98743 -20.890976z" fill-rule="evenodd"/><path fill="#ffffff" d="m515.0814 155.72958c-25.353241 0 -50.039734 7.264694 -71.122406 20.890976c-6.1358337 4.02623 -7.7393494 12.070709 -3.599701 18.042404c2.5197754 3.7596588 6.7330627 5.768799 11.040405 5.768799c2.5361328 0 5.1009216 -0.6962433 7.371155 -2.136444c16.681274 -10.9010315 36.29547 -16.610153 56.310547 -16.610153l152.1112 0c7.338501 0 13.343384 -5.8404083 13.343384 -12.977798c0 -7.137375 -6.004883 -12.977783 -13.343384 -12.977783z" fill-rule="evenodd"/><path fill="#ffffff" d="m133.46162 220.61855c-7.3384476 0 -13.343384 5.8404083 -13.343384 12.977798c0 7.13739 6.004936 12.977798 13.343384 12.977798l152.11122 0c20.015076 0 39.63336 5.7091064 56.310547 16.610153c2.274353 1.4401855 4.8391113 2.136444 7.371155 2.136444c4.307373 0 8.52063 -2.0091553 11.044495 -5.768799c4.135559 -5.971695 2.5320435 -14.01619 -3.6037598 -18.042404l-0.13500977 0c-20.947693 -13.626282 -45.765076 -20.890991 -70.98743 -20.890991z" fill-rule="evenodd"/><path fill="#ffffff" d="m515.0814 220.61855c-25.353241 0 -50.039734 7.2647095 -71.122406 20.890991c-6.1358337 4.0262146 -7.7393494 12.070709 -3.599701 18.042404c2.5197754 3.7596436 6.7330627 5.768799 11.040405 5.768799c2.5361328 0 5.1009216 -0.69625854 7.371155 -2.136444c16.681274 -10.901047 36.29547 -16.610153 56.310547 -16.610153l152.1112 0c7.338501 0 13.343384 -5.8404083 13.343384 -12.977798c0 -7.13739 -6.004883 -12.977798 -13.343384 -12.977798z" fill-rule="evenodd"/><path fill="#ffffff" d="m133.46162 285.5075c-7.3384476 0 -13.343384 5.8364563 -13.343384 12.977814c0 7.13739 6.004936 12.977783 13.343384 12.977783l152.11122 0c20.015076 0 39.63336 5.709137 56.310547 16.610138c2.274353 1.4402161 4.8391113 2.136444 7.371155 2.136444c4.307373 0 8.52063 -2.0091248 11.044495 -5.7687683c4.135559 -5.97171 2.5320435 -14.016205 -3.6037598 -18.04242l-0.13500977 0c-20.947693 -13.626282 -45.765076 -20.890991 -70.98743 -20.890991z" fill-rule="evenodd"/><path fill="#ffffff" d="m515.0814 285.5075c-25.353241 0 -50.039734 7.2647095 -71.122406 20.890991c-6.1358337 4.0262146 -7.7393494 12.070709 -3.599701 18.04242c2.5197754 3.7596436 6.7330627 5.7687683 11.040405 5.7687683c2.5361328 0 5.1009216 -0.696228 7.371155 -2.136444c16.681274 -10.901001 36.29547 -16.610138 56.310547 -16.610138l152.1112 0c7.338501 0 13.343384 -5.840393 13.343384 -12.977783c0 -7.1413574 -6.004883 -12.977814 -13.343384 -12.977814z" fill-rule="evenodd"/><path fill="#ffffff" d="m133.46162 350.39252c-7.3384476 0 -13.343384 5.840393 -13.343384 12.977783c0 7.141388 6.004936 12.977814 13.343384 12.977814l152.11122 0c20.015076 0 39.63336 5.7130737 56.310547 16.614105c2.274353 1.4402161 4.8391113 2.136444 7.371155 2.136444c4.307373 0 8.52063 -2.013092 11.044495 -5.772766c4.135559 -5.9677124 2.5320435 -14.012207 -3.6037598 -18.038422l-0.13500977 0c-20.947693 -13.626282 -45.765076 -20.894958 -70.98743 -20.894958z" fill-rule="evenodd"/><path fill="#ffffff" d="m515.0814 350.39252c-25.353241 0 -50.039734 7.2686768 -71.122406 20.894958c-6.1358337 4.0262146 -7.7393494 12.070709 -3.599701 18.038422c2.5197754 3.759674 6.7330627 5.772766 11.040405 5.772766c2.5361328 0 5.1009216 -0.696228 7.371155 -2.136444c16.681274 -10.9010315 36.29547 -16.614105 56.310547 -16.614105l152.1112 0c7.338501 0 13.343384 -5.836426 13.343384 -12.977814c0 -7.13739 -6.004883 -12.977783 -13.343384 -12.977783z" fill-rule="evenodd"/><path fill="#ffffff" d="m133.46162 415.2815c-7.3384476 0 -13.343384 5.840393 -13.343384 12.977783c0 7.13739 6.004936 12.977783 13.343384 12.977783l152.11122 0c20.015076 0 39.63336 5.7131042 56.310547 16.614136c2.274353 1.4402161 4.8391113 2.136444 7.371155 2.136444c4.307373 0 8.52063 -2.0131226 11.044495 -5.772766c4.135559 -5.9677124 2.5320435 -14.016174 -3.6037598 -18.038422c-21.082703 -13.626282 -45.769196 -20.894958 -71.12244 -20.894958z" fill-rule="evenodd"/><path fill="#ffffff" d="m515.0814 415.2815c-25.353241 0 -50.039734 7.2686768 -71.122406 20.894958c-6.1358337 4.0222473 -7.7393494 12.070709 -3.599701 18.038422c2.5197754 3.7596436 6.7330627 5.772766 11.040405 5.772766c2.5361328 0 5.1009216 -0.696228 7.371155 -2.136444c16.681274 -10.9010315 36.29547 -16.614136 56.310547 -16.614136l152.1112 0c7.338501 0 13.343384 -5.840393 13.343384 -12.977783c0 -7.13739 -6.004883 -12.977783 -13.343384 -12.977783z" fill-rule="evenodd"/></g></svg>